<svg xmlns="http://www.w3.org/2000/svg" viewBox="0 0 200 52" aria-label="Frog School ホームへ戻る"><g><g><path d="M24.9,33.3C24.9,33.3,25,33.2,24.9,33.3C25,33.2,24.9,33.3,24.9,33.3z"/><path d="M53.6,38.1c-0.1-0.7-2.8,1.1-2.5,1.7c0.3,0.7,0.4,1.5,0.2,2.4c-0.3,1.8-2.2,3-2.3,2.7c0-0.3,1.1-4.9,0.4-5.6c-0.3-0.3-0.8,0-1.1-0.3c-0.3-0.3-0.3-0.4-0.8-0.5c-0.2,0-0.8,0.3-1.5,0.7l0,0l0,0c-0.2,0.1-0.3,0.3-0.5,0.4c-0.2,0.2-0.5,0.3-0.9,0.4c-1.8,0.2-1.6-1.3-3.4-1.4c-1.7-0.1-2.6,1.1-3,2.1c-0.4,0.4-0.9,0.7-1.5,0.6c-0.9-0.1,0.4-2-1.2-2.4c-0.9-0.2-1.4,1-1.6,1.3c0,0,0.3-1.2,0-1.5c-0.4-0.3-2.9-0.3-4.1-0.3c0-1.5,0-2.9,0-3.6c2.3-1,5.1-1.1,8.9,2.1c0.7,0.5,2.8-1.2,2.5-1.7c-0.3-0.5-3-3.8-8.5-3.4c-4.4,0.3-8,5.1-8.3,5.9c-0.1,0.4,0.3,0.7,0.6,0.5c1-0.7,2.1-1.8,3.4-2.6c-0.1,0.8-0.2,1.9-0.4,3c-1.5,0.1-2.9,0.3-3.5,0.6c-0.3,0.2,0.3,1,0.6,1.3c0.1,0.1,1.2,0.2,2.6,0.1c-0.2,1.2-0.5,2.1-0.8,2.5c-0.5,0.7-0.4,0-0.8-0.5c-0.2-0.2-1.7-0.2-1.7,0.3c0,0.7,0.5,2.3,1.4,2.7c2.7,1.1,3.6-1.9,3.9-5c0.8,0,1.6-0.1,2.2-0.2c-0.1,1.8-0.1,4.5,0,4.8c0.1,0.5,1.2,1.2,2,0.3c0.8-0.9,0.4-3.4,0.9-3.4c0.5,0,0,0.8,1.2,1.1c0.9,0.2,1.6-0.4,2-1c0,1.1,0.1,3.1,1.5,3.6c1.8,0.6,3-0.8,3.4-2.4c0.3-1.2,0.2-1.6,0.2-1.9c0-0.3,0.2,0.2,1.2,0l0.1-0.2c-0.1,0.2-0.2,0.5-0.2,0.7c-0.4,2.1-0.1,3.2,0.8,3.7c1.4,0.7,2.4-0.7,2.4-0.7s0.2,0.8,0,1c-0.2,0.2-2.3,1.2-3.3,2.7c-0.9,1.4-0.5,2.6,0.8,3.3c1.5,0.7,3.1-0.8,3.4-1.9c0.2-0.7,0.4-3.4,0.8-3.7c0.4-0.3,1.3-0.4,2.8-2.2C53.8,41.9,53.9,39.8,53.6,38.1z M41.4,42.4c0,0.2-0.1,0.4-0.2,0.6c-0.1,0.2-0.2,0.3-0.3,0.4c-0.1,0.1-0.2,0.2-0.3,0.2c-0.1,0-0.2,0-0.3-0.1c-0.1-0.1-0.2-0.1-0.2-0.2C40,43.2,40,43.1,40,43c0-0.1,0-0.2,0-0.4c0-0.3,0-0.5,0.1-0.7c0.1-0.2,0.1-0.4,0.2-0.6c0.1-0.2,0.2-0.3,0.3-0.4c0.1-0.1,0.2-0.2,0.4-0.2c0.1,0,0.2,0,0.2,0.1c0.1,0.1,0.1,0.1,0.2,0.2c0,0.1,0.1,0.2,0.1,0.3c0,0.1,0,0.3,0,0.4C41.4,42,41.4,42.2,41.4,42.4z M46.4,50c-0.3-0.3-0.3-0.7-0.2-1c0.1-0.4,1-1.3,1.3-1.5C47.5,47.5,47,50.6,46.4,50z M47.7,42.8c-0.2,0.6-0.9,0.7-1.1,0.6c-0.5-0.3-0.4-0.9-0.2-1.3c0.5-1.2,1.2-1.5,1.6-1.5C48.1,41.3,47.8,42.5,47.7,42.8z"/><path d="M52.7,34.7c-1-3-3.4-5.9-6-7.6c-0.3-0.2-0.4-0.6-0.1-0.9c2.7-2.1,4.9-7.9,5.5-12.8c0.1-0.5-0.2-0.8-0.6-0.9c-4-1.1-8.7-1.9-10.2-1.8c-0.4,0-0.7-0.2-0.8-0.6c-0.7-2.8-3.2-5-6.3-5.1c-3.7-0.1-6.7,2.8-6.8,6.4c0.5,1.4,0.3,2.9-0.4,4.6c-0.9,1.9-2.5,3.7-4.6,5.1c-1.9,1.2-3.9,2-5.9,2.2c-2.2,3.7-3.6,7.9-3.7,12c0,0.4,0,0.8,0.4,1c1.7,0.8,3.6,0.7,5.5,0.3c1.5-0.4,3.4-1.6,5.9-4.2c1.8-1.8,4.1-3.1,6.7-3.7c3.3-0.7,6.7,0,9.7,1.6c4.8,2.6,6.7,5.9,8.9,6.7c0.2,0.1,0.4-0.1,0.4-0.3c0-0.2-0.3-2.1-0.3-2.2c0-0.1,0.1-0.3,0.4-0.2c0.4,0.2,1.8,0.7,1.9,0.8C52.4,35.2,52.8,35,52.7,34.7z M33.9,15c-1.8,0-3.3-1.6-3.2-3.4c0-1.8,1.6-3.3,3.4-3.2c1.8,0,3.3,1.6,3.2,3.4C37.2,13.6,35.7,15.1,33.9,15z"/><path d="M25.4,10.3l-1-1.6l-4.6,5.9c-0.5,0.6-1.5,1.3-2.3,1.5l-7.3,1.9l1,1.6c0,0,0.3,0.5,0.5,0.8c1.6,2.5,6.1,2.4,10.1-0.2c3.9-2.6,5.8-6.7,4.1-9.2C25.7,10.8,25.4,10.3,25.4,10.3z"/><path d="M29.3,0L12.7,4.5c-0.6,0.2-1.5,0.7-1.9,1.3L0.2,19.3c-0.4,0.5-0.2,0.8,0.4,0.6l6.8-1.8C7.7,19.4,8,20.4,8,20.4c-0.1,0.4-0.4,0.7-0.7,1.1c0,0-0.2,0.4,0,1c0.1,0.4,0.8,1.2,0.8,1.6c0,0,0.6,6.7-0.8,7.8c-1.6,1.4,2.9,2.5,4.2,0.2c1-1.8-1.5-8.2-1.5-8.2c0-0.9,1.1-2.2-0.6-3.5c-0.8-0.6-1-1.6-0.9-2.6l8.7-2.3c0.6-0.2,1.5-0.7,1.9-1.3L29.7,0.7C30.1,0.2,29.9-0.1,29.3,0z"/></g><g class="logo-text"><path d="M63.4,20.3c0-0.7,0.5-1.2,1.2-1.2h7.7c0.6,0,1.1,0.5,1.1,1.1s-0.5,1.1-1.1,1.1h-6.5v3.6h5.7c0.6,0,1.1,0.5,1.1,1.1c0,0.6-0.5,1.1-1.1,1.1h-5.7v4.3c0,0.6-0.5,1.1-1.1,1.1c-0.7,0-1.2-0.5-1.2-1.1V20.3z"/><path d="M76,23.4c0-0.6,0.5-1.1,1.1-1.1c0.6,0,1.1,0.5,1.1,1.1v1c0.5-1.2,1.5-2.2,2.5-2.2c0.7,0,1.1,0.5,1.1,1.1c0,0.6-0.4,1-0.9,1.1c-1.6,0.3-2.7,1.5-2.7,3.9v2.9c0,0.6-0.5,1.1-1.1,1.1c-0.6,0-1.1-0.5-1.1-1.1V23.4z"/><path d="M83.3,27.4L83.3,27.4c0-2.9,2.3-5.2,5.3-5.2c3,0,5.3,2.3,5.3,5.2v0c0,2.8-2.3,5.2-5.3,5.2C85.6,32.5,83.3,30.2,83.3,27.4z M91.6,27.4L91.6,27.4c0-1.8-1.3-3.2-3-3.2c-1.8,0-3,1.4-3,3.2v0c0,1.7,1.3,3.2,3,3.2C90.5,30.5,91.6,29.1,91.6,27.4z"/><path d="M97.3,34.5c-0.4-0.2-0.6-0.5-0.6-0.9c0-0.5,0.4-0.9,1-0.9c0.2,0,0.3,0,0.4,0.1c0.9,0.5,1.9,0.8,3,0.8c2,0,3.1-1.1,3.1-3v-0.8c-0.8,1.1-1.9,1.8-3.5,1.8c-2.3,0-4.5-1.7-4.5-4.6v0c0-2.9,2.2-4.7,4.5-4.7c1.7,0,2.7,0.8,3.5,1.7v-0.5c0-0.6,0.5-1.1,1.1-1.1c0.6,0,1.1,0.5,1.1,1.1v6.9c0,1.7-0.4,2.9-1.3,3.7c-0.9,0.9-2.3,1.3-4.1,1.3C99.7,35.3,98.5,35,97.3,34.5z M104.2,26.8L104.2,26.8c0-1.7-1.3-2.8-2.9-2.8c-1.6,0-2.8,1.1-2.8,2.7v0c0,1.6,1.3,2.7,2.8,2.7C102.9,29.6,104.2,28.5,104.2,26.8z"/><path d="M115.8,30.8c-0.3-0.2-0.5-0.5-0.5-0.9c0-0.6,0.5-1.1,1.1-1.1c0.3,0,0.5,0.1,0.7,0.2c1.1,0.9,2.3,1.4,3.7,1.4s2.3-0.7,2.3-1.7v0c0-0.9-0.5-1.4-3-2c-2.8-0.7-4.4-1.5-4.4-3.9v0c0-2.3,1.9-3.8,4.5-3.8c1.7,0,3,0.4,4.2,1.2c0.3,0.2,0.5,0.5,0.5,0.9c0,0.6-0.5,1.1-1.1,1.1c-0.2,0-0.4-0.1-0.6-0.2c-1-0.7-2-1-3-1c-1.4,0-2.1,0.7-2.1,1.6v0c0,1,0.6,1.5,3.1,2.1c2.8,0.7,4.2,1.7,4.2,3.9v0c0,2.5-1.9,3.9-4.7,3.9C119,32.5,117.3,31.9,115.8,30.8z"/><path d="M128.1,25.7L128.1,25.7c0-3.8,2.8-6.8,6.8-6.8c2,0,3.4,0.6,4.5,1.5c0.2,0.2,0.5,0.5,0.5,0.9c0,0.6-0.5,1.1-1.1,1.1c-0.3,0-0.5-0.1-0.7-0.2c-0.9-0.7-1.9-1.2-3.1-1.2c-2.5,0-4.3,2.1-4.3,4.6v0c0,2.6,1.8,4.7,4.3,4.7c1.4,0,2.3-0.5,3.3-1.3c0.2-0.2,0.4-0.3,0.7-0.3c0.6,0,1.1,0.5,1.1,1.1c0,0.4-0.2,0.6-0.4,0.8c-1.2,1.1-2.7,1.8-4.8,1.8C130.9,32.5,128.1,29.5,128.1,25.7z"/><path d="M143,20.2c0-0.6,0.5-1.1,1.2-1.1c0.6,0,1.1,0.5,1.1,1.1v4.4h6.3v-4.4c0-0.6,0.5-1.1,1.1-1.1c0.7,0,1.2,0.5,1.2,1.1v11.1c0,0.6-0.5,1.1-1.2,1.1c-0.6,0-1.1-0.5-1.1-1.1v-4.5h-6.3v4.5c0,0.6-0.5,1.1-1.1,1.1c-0.7,0-1.2-0.5-1.2-1.1V20.2z"/><path d="M157.2,25.7L157.2,25.7c0-3.7,2.9-6.8,6.9-6.8c4,0,6.9,3.1,6.9,6.8v0c0,3.7-2.9,6.8-6.9,6.8C160,32.5,157.2,29.5,157.2,25.7z M168.5,25.7L168.5,25.7c0-2.6-1.9-4.7-4.5-4.7s-4.4,2.1-4.4,4.6v0c0,2.6,1.9,4.7,4.5,4.7C166.7,30.4,168.5,28.3,168.5,25.7z"/><path d="M173.6,25.7L173.6,25.7c0-3.7,2.9-6.8,6.9-6.8c4,0,6.9,3.1,6.9,6.8v0c0,3.7-2.9,6.8-6.9,6.8C176.5,32.5,173.6,29.5,173.6,25.7z M185,25.7L185,25.7c0-2.6-1.9-4.7-4.5-4.7s-4.4,2.1-4.4,4.6v0c0,2.6,1.9,4.7,4.5,4.7S185,28.3,185,25.7z"/><path d="M190.7,20.2c0-0.6,0.5-1.1,1.2-1.1c0.6,0,1.1,0.5,1.1,1.1v10h6c0.6,0,1.1,0.5,1.1,1.1c0,0.6-0.5,1.1-1.1,1.1h-7.1c-0.7,0-1.2-0.5-1.2-1.2V20.2z"/></g></g></svg>